<svg xmlns="http://www.w3.org/2000/svg" xmlns:xlink="http://www.w3.org/1999/xlink" width="159" height="151" viewBox="0 0 159 151">
  <defs>
    <linearGradient id="linear-gradient" x1="0.5" x2="0.5" y2="1" gradientUnits="objectBoundingBox">
      <stop offset="0" stop-color="#525252"/>
      <stop offset="1" stop-color="#3d72b4"/>
    </linearGradient>
  </defs>
  <g id="Group_25" data-name="Group 25" transform="translate(-881 -1195)">
    <path id="Polygon_3" data-name="Polygon 3" d="M79.5,0,159,57.677,128.634,151H30.366L0,57.677Z" transform="translate(881 1195)" fill="url(#linear-gradient)"/>
    <path id="cloudhosting" d="M73.5,84h-63a10.122,10.122,0,0,1-7.425-3.075,10.5,10.5,0,0,1,0-14.849A10.112,10.112,0,0,1,10.5,63h63a10.5,10.5,0,0,1,7.425,17.925A10.112,10.112,0,0,1,73.5,84ZM15.708,68.25A5.179,5.179,0,0,0,10.5,73.458a5.164,5.164,0,0,0,1.517,3.733,4.956,4.956,0,0,0,3.691,1.559,5.164,5.164,0,0,0,3.733-1.517,5.25,5.25,0,0,0,0-7.467A5.164,5.164,0,0,0,15.708,68.25Zm52.542,0H36.75a5.079,5.079,0,0,0-3.733,1.517A5.012,5.012,0,0,0,31.5,73.458a5.177,5.177,0,0,0,1.517,3.733A5,5,0,0,0,36.75,78.75h31.5a5.115,5.115,0,0,0,3.691-1.517,5.25,5.25,0,0,0,0-7.467A5.115,5.115,0,0,0,68.25,68.25Zm-7.875-10.5H21A15.183,15.183,0,0,1,9.844,53.156,15.766,15.766,0,0,1,7.751,33.509a16.061,16.061,0,0,1,6.6-5.782,24.637,24.637,0,0,0,7.177,7.383,24.482,24.482,0,0,0,9.639,3.855,20.683,20.683,0,0,1-7.425-7.546A20.442,20.442,0,0,1,21,21,20.227,20.227,0,0,1,27.153,6.153,20.244,20.244,0,0,1,42,0,20.39,20.39,0,0,1,53.977,3.733,20.669,20.669,0,0,1,61.6,13.454a23.116,23.116,0,0,0-14.028,8.038A22.84,22.84,0,0,0,42,36.75q0,.9.082,1.8A17.849,17.849,0,0,1,47.7,26.126a18.327,18.327,0,0,1,25.678.247,17.722,17.722,0,0,1,5.374,13A18.347,18.347,0,0,1,60.375,57.75Z" transform="translate(918 1232)" fill="#fff"/>
  </g>
</svg>
