<?xml version="1.0" encoding="UTF-8"?>
<svg id="Laag_1" data-name="Laag 1" xmlns="http://www.w3.org/2000/svg" viewBox="0 0 512 512">
  <defs>
    <style>
      .cls-1 {
        fill: #3d72b5;
      }
    </style>
  </defs>
  <polygon class="cls-1" points="457.98 385.63 268.33 512 270.03 440.04 270.44 385.89 378.66 341.53 433.14 371.82 457.98 385.63"/>
  <g>
    <polyline class="cls-1" points="360.32 225.72 131.96 225.72 133.1 178.16 76.59 150.87 21.9 124.45 48.47 373.48 75.79 357.9 129.52 327.25 130.99 266.4 356.07 266.4"/>
    <polyline class="cls-1" points="151.68 225.72 380.04 225.72 378.9 178.16 435.41 150.87 490.1 124.45 463.53 373.48 436.21 357.9 382.48 327.25 381.01 266.4 155.93 266.4"/>
  </g>
  <polygon class="cls-1" points="52.18 385.63 241.83 512 240.13 440.04 239.72 385.89 131.5 341.53 77.01 371.82 52.18 385.63"/>
  <polygon class="cls-1" points="290.88 0 490.1 110.67 425.36 142.14 377.04 166.58 288.03 90.72 289.98 28.4 290.88 0"/>
  <polygon class="cls-1" points="221.12 0 21.9 110.67 86.64 142.14 134.96 166.58 223.97 90.72 222.02 28.4 221.12 0"/>
</svg>