<?xml version="1.0" encoding="UTF-8"?>
<svg id="Laag_1" data-name="Laag 1" xmlns="http://www.w3.org/2000/svg" viewBox="0 0 2551.48 512">
  <defs>
    <style>
      .cls-1 {
        fill: #1d1d1b;
      }

      .cls-2 {
        fill: #3d72b5;
      }
    </style>
  </defs>
  <polygon class="cls-2" points="457.98 385.63 268.33 512 270.03 440.04 270.44 385.89 378.66 341.53 433.14 371.82 457.98 385.63"/>
  <g>
    <polyline class="cls-2" points="360.32 225.72 131.96 225.72 133.1 178.16 76.59 150.87 21.9 124.45 48.47 373.48 75.79 357.9 129.52 327.25 130.99 266.4 356.07 266.4"/>
    <polyline class="cls-2" points="151.68 225.72 380.04 225.72 378.9 178.16 435.41 150.87 490.1 124.45 463.53 373.48 436.21 357.9 382.48 327.25 381.01 266.4 155.93 266.4"/>
  </g>
  <polygon class="cls-2" points="52.18 385.63 241.83 512 240.13 440.04 239.72 385.89 131.5 341.53 77.01 371.82 52.18 385.63"/>
  <polygon class="cls-2" points="290.88 0 490.1 110.67 425.36 142.14 377.04 166.58 288.03 90.72 289.98 28.4 290.88 0"/>
  <polygon class="cls-2" points="221.12 0 21.9 110.67 86.64 142.14 134.96 166.58 223.97 90.72 222.02 28.4 221.12 0"/>
  <g>
    <path class="cls-1" d="m734.1,337.09h-45.38v-77.52h-67v77.52h-45.38v-175.95h45.38v64.4h67v-64.4h45.38v175.95Z"/>
    <path class="cls-1" d="m912.29,270.8c0,21.82-6.36,39.01-19.08,51.58-12.72,12.57-30.59,18.85-53.59,18.85s-40.87-6.28-53.59-18.85c-12.72-12.56-19.08-29.76-19.08-51.58s6.4-39.23,19.2-51.76c12.8-12.53,30.62-18.79,53.47-18.79s41.06,6.3,53.71,18.91c12.64,12.6,18.96,29.82,18.96,51.64Zm-52.35,32.26c2.76-3.39,4.82-7.46,6.2-12.23,1.38-4.77,2.07-11.36,2.07-19.79,0-7.8-.71-14.34-2.13-19.62-1.42-5.28-3.39-9.49-5.91-12.64-2.52-3.23-5.55-5.51-9.1-6.85-3.54-1.34-7.37-2.01-11.46-2.01s-7.74.55-10.93,1.65c-3.19,1.1-6.24,3.31-9.16,6.62-2.6,3.07-4.67,7.29-6.2,12.64-1.54,5.36-2.3,12.09-2.3,20.21,0,7.25.67,13.53,2.01,18.85,1.34,5.32,3.31,9.59,5.91,12.82,2.52,3.07,5.53,5.32,9.04,6.74,3.5,1.42,7.5,2.13,11.99,2.13,3.86,0,7.54-.65,11.05-1.95,3.5-1.3,6.48-3.49,8.92-6.56Z"/>
    <path class="cls-1" d="m1058.11,295.02c0,13.71-6.14,24.76-18.43,33.14-12.29,8.39-29.11,12.58-50.46,12.58-11.82,0-22.53-1.1-32.14-3.31-9.61-2.2-17.33-4.65-23.16-7.33v-34.98h3.9c2.13,1.5,4.59,3.13,7.38,4.9,2.8,1.77,6.75,3.68,11.88,5.73,4.41,1.81,9.41,3.37,15.01,4.67,5.59,1.3,11.58,1.95,17.96,1.95,8.35,0,14.53-.92,18.55-2.78,4.02-1.85,6.03-4.59,6.03-8.21,0-3.23-1.18-5.57-3.54-7.03-2.36-1.46-6.85-2.85-13.47-4.2-3.15-.71-7.43-1.48-12.82-2.3-5.4-.83-10.3-1.83-14.71-3.01-12.05-3.15-20.99-8.05-26.82-14.71-5.83-6.66-8.74-14.95-8.74-24.87,0-12.76,6.04-23.38,18.14-31.85,12.09-8.47,28.61-12.7,49.57-12.7,9.93,0,19.44,1,28.54,3.01,9.1,2.01,16.21,4.16,21.33,6.44v33.56h-3.66c-6.3-4.33-13.49-7.86-21.56-10.58-8.08-2.72-16.25-4.08-24.52-4.08-6.85,0-12.62.95-17.31,2.84-4.69,1.89-7.03,4.57-7.03,8.04,0,3.15,1.06,5.55,3.19,7.21s7.13,3.31,15.01,4.96c4.33.87,9,1.71,14,2.54,5,.83,10.02,1.87,15.07,3.13,11.18,2.92,19.46,7.5,24.81,13.77,5.36,6.26,8.04,14.08,8.04,23.46Z"/>
    <path class="cls-1" d="m1171.19,335.92c-4.57,1.18-9.41,2.1-14.53,2.77-5.12.67-11.38,1-18.79,1-16.54,0-28.85-3.35-36.93-10.04-8.08-6.69-12.11-18.16-12.11-34.39v-62.04h-17.49v-28.83h17.49v-37.93h42.66v37.93h39.7v28.83h-39.7v47.1c0,4.66.04,8.72.12,12.19.08,3.47.71,6.59,1.88,9.35,1.1,2.76,3.04,4.95,5.83,6.57s6.85,2.43,12.2,2.43c2.2,0,5.08-.47,8.66-1.42,3.57-.95,6.07-1.81,7.48-2.6h3.53v29.08Z"/>
    <path class="cls-1" d="m1240.44,185.49h-45.02v-32.26h45.02v32.26Zm-1.18,151.6h-42.66v-132.7h42.66v132.7Z"/>
    <path class="cls-1" d="m1412.6,337.09h-42.66v-65.82c0-5.36-.28-10.69-.83-16.01-.55-5.32-1.5-9.24-2.84-11.76-1.58-2.91-3.88-5.04-6.91-6.38-3.03-1.34-7.27-2.01-12.7-2.01-3.86,0-7.78.63-11.76,1.89-3.98,1.26-8.29,3.27-12.94,6.03v94.06h-42.66v-132.7h42.66v14.65c7.55-5.91,14.81-10.44,21.77-13.59,6.96-3.15,14.69-4.73,23.19-4.73,14.32,0,25.51,4.18,33.57,12.53,8.06,8.35,12.1,20.84,12.1,37.46v86.38Z"/>
    <path class="cls-1" d="m1580.75,321.85c0,12.45-1.77,22.92-5.32,31.43s-8.51,15.16-14.89,19.97c-6.38,4.88-14.08,8.41-23.1,10.58-9.02,2.17-19.2,3.25-30.55,3.25-9.22,0-18.3-.55-27.24-1.65-8.94-1.1-16.68-2.44-23.22-4.02v-33.2h5.19c5.19,2.05,11.52,3.92,19,5.61,7.47,1.69,14.16,2.54,20.06,2.54,7.87,0,14.26-.73,19.17-2.19,4.92-1.46,8.67-3.53,11.27-6.2,2.44-2.52,4.21-5.75,5.31-9.69s1.65-8.67,1.65-14.18v-2.48c-5.11,4.18-10.78,7.49-17,9.93-6.21,2.44-13.14,3.66-20.77,3.66-18.57,0-32.89-5.59-42.96-16.78-10.07-11.18-15.11-28.2-15.11-51.05,0-10.95,1.53-20.4,4.6-28.36,3.07-7.96,7.39-14.89,12.98-20.8,5.19-5.51,11.59-9.81,19.18-12.88s15.36-4.61,23.31-4.61c7.16,0,13.67.85,19.53,2.54,5.86,1.69,11.19,4.04,15.99,7.03l1.54-5.91h41.35v117.45Zm-42.66-26.59v-60.15c-2.44-1.02-5.42-1.83-8.96-2.42-3.54-.59-6.72-.89-9.55-.89-11.16,0-19.53,3.21-25.11,9.63-5.58,6.42-8.37,15.38-8.37,26.88,0,12.76,2.38,21.66,7.13,26.7,4.75,5.04,11.81,7.56,21.16,7.56,4.24,0,8.41-.67,12.5-2.01,4.09-1.34,7.82-3.11,11.2-5.32Z"/>
    <path class="cls-1" d="m1750.55,337.09h-127.26v-175.95h127.26v34.03h-82.12v30.37h76.22v34.03h-76.22v43.48h82.12v34.03Z"/>
    <path class="cls-1" d="m1924.96,337.09h-49.63l-28.35-39.73-29.12,39.73h-48.63l52.34-66.44-51.52-66.26h49.63l27.88,38.94,28.03-38.94h48.78l-51.63,65.36,52.22,67.34Z"/>
    <path class="cls-1" d="m2086.61,268.91c0,10.95-1.67,20.91-5.02,29.9s-7.73,16.39-13.16,22.21c-5.67,6.14-12.08,10.79-19.24,13.94s-14.83,4.73-23.01,4.73c-7.55,0-13.97-.81-19.24-2.42-5.27-1.61-10.66-3.88-16.17-6.79v55.3h-42.66v-181.38h42.66v13.83c6.53-5.2,13.2-9.41,20-12.64,6.81-3.23,14.65-4.84,23.55-4.84,16.52,0,29.37,6.07,38.53,18.2,9.17,12.13,13.75,28.79,13.75,49.98Zm-43.84.89c0-12.9-2.2-22.26-6.6-28.08-4.4-5.82-11.36-8.73-20.87-8.73-4.01,0-8.14.61-12.38,1.83-4.25,1.22-8.29,2.97-12.14,5.25v66.66c2.83,1.1,5.85,1.81,9.08,2.12,3.22.31,6.41.47,9.55.47,11.24,0,19.61-3.28,25.11-9.85s8.25-16.46,8.25-29.67Z"/>
    <path class="cls-1" d="m2248.02,278.6h-97.37c.63,10.4,4.59,18.36,11.88,23.87,7.29,5.52,18.02,8.27,32.2,8.27,8.98,0,17.68-1.61,26.11-4.84,8.43-3.23,15.08-6.69,19.97-10.4h4.73v34.15c-9.61,3.86-18.67,6.66-27.18,8.39s-17.92,2.6-28.24,2.6c-26.63,0-47.03-5.99-61.21-17.96-14.18-11.97-21.27-29.03-21.27-51.16s6.71-39.25,20.15-52.05c13.43-12.8,31.85-19.2,55.24-19.2,21.58,0,37.81,5.46,48.68,16.37,10.87,10.91,16.31,26.61,16.31,47.09v14.89Zm-42.3-24.93c-.24-8.9-2.44-15.6-6.62-20.09-4.18-4.49-10.68-6.74-19.5-6.74-8.19,0-14.93,2.13-20.21,6.38-5.28,4.25-8.23,11.07-8.86,20.44h55.18Z"/>
    <path class="cls-1" d="m2374.22,244.92h-3.77c-1.81-.63-4.72-1.1-8.73-1.42-4.01-.31-7.35-.47-10.02-.47-6.05,0-11.4.4-16.04,1.18-4.64.79-9.63,2.13-14.97,4.02v88.86h-42.66v-132.7h42.66v19.5c9.35-8.04,17.49-13.37,24.4-16.01,6.92-2.64,13.28-3.96,19.1-3.96,1.49,0,3.18.04,5.07.12,1.89.08,3.54.2,4.95.35v40.53Z"/>
    <path class="cls-1" d="m2483.17,335.92c-4.57,1.18-9.41,2.1-14.53,2.77-5.12.67-11.38,1-18.79,1-16.54,0-28.85-3.35-36.93-10.04-8.08-6.69-12.11-18.16-12.11-34.39v-62.04h-17.49v-28.83h17.49v-37.93h42.66v37.93h39.7v28.83h-39.7v47.1c0,4.66.04,8.72.12,12.19.08,3.47.71,6.59,1.88,9.35,1.1,2.76,3.04,4.95,5.83,6.57s6.85,2.43,12.2,2.43c2.2,0,5.08-.47,8.66-1.42,3.57-.95,6.07-1.81,7.48-2.6h3.53v29.08Z"/>
  </g>
</svg>