<svg xmlns="http://www.w3.org/2000/svg" xmlns:xlink="http://www.w3.org/1999/xlink" width="159" height="151" viewBox="0 0 159 151">
  <defs>
    <linearGradient id="linear-gradient" x1="0.5" x2="0.5" y2="1" gradientUnits="objectBoundingBox">
      <stop offset="0" stop-color="#525252"/>
      <stop offset="1" stop-color="#3d72b4"/>
    </linearGradient>
  </defs>
  <g id="Group_26" data-name="Group 26" transform="translate(-1566 -1195)">
    <path id="Polygon_2" data-name="Polygon 2" d="M79.5,0,159,57.677,128.634,151H30.366L0,57.677Z" transform="translate(1566 1195)" fill="url(#linear-gradient)"/>
    <path id="managedhosting" d="M74.329,82.293H10.618a10.236,10.236,0,0,1-7.508-3.11,10.619,10.619,0,0,1,0-15.017,10.226,10.226,0,0,1,7.508-3.11H74.329a10.619,10.619,0,0,1,7.508,18.127A10.226,10.226,0,0,1,74.329,82.293ZM15.885,66.366a5.012,5.012,0,0,0-3.733,1.576,5.223,5.223,0,0,0-1.534,3.775,5.237,5.237,0,0,0,5.267,5.267,5.223,5.223,0,0,0,3.775-1.534,5.012,5.012,0,0,0,1.576-3.733,5.382,5.382,0,0,0-5.352-5.352Zm53.135,0H37.165a5.066,5.066,0,0,0-3.775,1.576,5.21,5.21,0,0,0-1.534,3.775,5.238,5.238,0,0,0,5.309,5.267H69.02a5.173,5.173,0,0,0,3.733-1.534,5.012,5.012,0,0,0,1.576-3.733,5.383,5.383,0,0,0-5.309-5.352ZM66.366,34.51H63.048a20.871,20.871,0,0,1-2.407,5.642l1.576,1.576A5.1,5.1,0,0,1,55,48.944l-1.576-1.659a20.928,20.928,0,0,1-5.642,2.407v3.4a5.136,5.136,0,0,1-1.534,3.775A5.069,5.069,0,0,1,42.516,58.4a5.235,5.235,0,0,1-3.775-1.534,5.056,5.056,0,0,1-1.576-3.775v-3.4a20.871,20.871,0,0,1-5.642-2.407l-1.659,1.659a5.1,5.1,0,0,1-7.216,0,5.1,5.1,0,0,1,0-7.216l1.659-1.659A19.741,19.741,0,0,1,21.9,34.512H18.582a5.136,5.136,0,0,1-3.775-1.534,5.069,5.069,0,0,1-1.534-3.733,5.235,5.235,0,0,1,1.534-3.775,5.056,5.056,0,0,1,3.775-1.576H21.9a20.871,20.871,0,0,1,2.407-5.642l-1.659-1.659a4.916,4.916,0,0,1-1.494-3.608,5.1,5.1,0,0,1,5.1-5.1,4.916,4.916,0,0,1,3.608,1.494l1.659,1.741a20.928,20.928,0,0,1,5.642-2.407v-3.4A5.173,5.173,0,0,1,38.7,1.576,5.012,5.012,0,0,1,42.431,0a5.151,5.151,0,0,1,3.775,1.576,5.1,5.1,0,0,1,1.576,3.733v3.4a21.148,21.148,0,0,1,5.557,2.322L55,9.373a5.1,5.1,0,0,1,8.71,3.608,4.916,4.916,0,0,1-1.494,3.608l-1.659,1.576a20.725,20.725,0,0,1,2.489,5.725h3.318a5.066,5.066,0,0,1,3.775,1.576,5.21,5.21,0,0,1,1.534,3.775A5.024,5.024,0,0,1,70.1,32.974a5.167,5.167,0,0,1-3.733,1.534ZM42.474,18.582A10.618,10.618,0,0,0,31.855,29.2,10.618,10.618,0,0,0,42.474,39.819,10.618,10.618,0,0,0,53.092,29.2,10.618,10.618,0,0,0,42.474,18.582Z" transform="translate(1603 1229)" fill="#fff"/>
  </g>
</svg>
