<svg xmlns="http://www.w3.org/2000/svg" xmlns:xlink="http://www.w3.org/1999/xlink" width="159" height="151" viewBox="0 0 159 151">
  <defs>
    <linearGradient id="linear-gradient" x1="0.5" x2="0.5" y2="1" gradientUnits="objectBoundingBox">
      <stop offset="0" stop-color="#525252"/>
      <stop offset="1" stop-color="#3d72b4"/>
    </linearGradient>
  </defs>
  <g id="Group_24" data-name="Group 24" transform="translate(-194 -1198)">
    <path id="Polygon_1" data-name="Polygon 1" d="M79.5,0,159,57.677,128.634,151H30.366L0,57.677Z" transform="translate(194 1198)" fill="url(#linear-gradient)"/>
    <path id="sharedhosting" d="M73.553,52.538A10.507,10.507,0,0,1,84.06,63.045V73.553A10.507,10.507,0,0,1,73.553,84.06H10.508a10.129,10.129,0,0,1-7.43-3.078A10.112,10.112,0,0,1,0,73.553V63.045a10.129,10.129,0,0,1,3.078-7.43,10.112,10.112,0,0,1,7.43-3.078H36.776V42.03H10.508a10.129,10.129,0,0,1-7.43-3.078A10.112,10.112,0,0,1,0,31.523V21.015a10.129,10.129,0,0,1,3.078-7.43,10.112,10.112,0,0,1,7.43-3.078H36.776V5.254a5.083,5.083,0,0,1,1.518-3.736A5.016,5.016,0,0,1,41.988,0a5.181,5.181,0,0,1,3.736,1.518,5,5,0,0,1,1.56,3.736v5.254H73.553a10.129,10.129,0,0,1,7.43,3.078,10.112,10.112,0,0,1,3.078,7.43V31.523A10.507,10.507,0,0,1,73.553,42.03H47.284V52.538ZM15.719,63.045a4.96,4.96,0,0,0-3.694,1.56,5.168,5.168,0,0,0-1.518,3.736,5.182,5.182,0,0,0,5.212,5.212,5.168,5.168,0,0,0,3.736-1.518,4.96,4.96,0,0,0,1.56-3.694,5.326,5.326,0,0,0-5.3-5.3Zm0-42.03a4.96,4.96,0,0,0-3.694,1.56,5.168,5.168,0,0,0-1.518,3.736,5.182,5.182,0,0,0,5.212,5.212A5.168,5.168,0,0,0,19.455,30a4.96,4.96,0,0,0,1.56-3.694,5.326,5.326,0,0,0-5.3-5.3ZM68.3,31.523A5.119,5.119,0,0,0,71.993,30a4.96,4.96,0,0,0,1.56-3.694,5.326,5.326,0,0,0-5.254-5.3H36.776a5.013,5.013,0,0,0-3.736,1.56,5.156,5.156,0,0,0-1.518,3.736,5.183,5.183,0,0,0,5.254,5.212ZM36.776,63.045a5.013,5.013,0,0,0-3.736,1.56,5.156,5.156,0,0,0-1.518,3.736,5.183,5.183,0,0,0,5.254,5.212H68.3a5.119,5.119,0,0,0,3.694-1.518,4.96,4.96,0,0,0,1.56-3.694,5.326,5.326,0,0,0-5.254-5.3Z" transform="translate(231 1231)" fill="#fff"/>
  </g>
</svg>
